<svg xmlns="http://www.w3.org/2000/svg" viewBox="0 0 405.561 405.561">
  <path d="M87.688 206.428V6.79c0-3.672-2.976-6.652-6.64-6.652H38.559C25.52.138 14.912 10.75 14.912 23.782v165.643c0 13.027 10.608 23.639 23.647 23.639h42.489c3.664-.001 6.64-2.977 6.64-6.636zM374.795 254.7l15.515-46.924a6.353 6.353 0 00.339-2.084V6.651a6.655 6.655 0 00-6.652-6.652h-108.62a6.646 6.646 0 00-6.648 6.652v52.606L137.211 30.716l-10.86-26.331A6.65 6.65 0 00120.199.27h-14.41a6.644 6.644 0 00-6.65 6.648v198.764a6.643 6.643 0 006.65 6.641h17.732a6.657 6.657 0 006.546-5.396l11.003-57.776 46.384 5.119 6.861 15.428a6.653 6.653 0 004.771 3.816l55.747 11.083c3.515.699 6.95-1.522 7.767-5.011l2.172-9.278h3.402v34.172a6.657 6.657 0 001.402 3.911l41.559 48.282a6.651 6.651 0 005.25 2.562h52.09a6.61 6.61 0 006.32-4.535zM375.128 301.368v-25.48a6.651 6.651 0 00-6.648-6.656h-48.768a6.65 6.65 0 00-6.648 6.656v25.48a6.646 6.646 0 006.648 6.656h48.768a6.65 6.65 0 006.648-6.656zM350.482 398.901v-.031l-.076-70.898h4.774a6.644 6.644 0 006.649-6.646 6.641 6.641 0 00-6.649-6.65h-22.905a6.65 6.65 0 00-6.648 6.65 6.65 6.65 0 006.648 6.646h4.829l.021 70.972c.016 3.664 3.058 6.63 6.735 6.616a6.65 6.65 0 006.622-6.659z"/>
</svg>
